# xmcd
#
# Track frame offsets: 
#        150
#        20714
#        45207
#        69366
#        101299
#        125597
#        142344
#        163159
#        186008
#        209386
#        231538
#        253217
#        288800
#
# Disc length: 4171 seconds
#
# Revision: 0
# Processed by: cddbd v1.5.2PL0 Copyright (c) Steve Scherf et al.
# Submitted via: ExactAudioCopy v1.3
#
DISCID=c110490d
DTITLE=Junior Wells and Buddy Guy - Live in Japan 1975
DYEAR=1990
DGENRE=Blues
TTITLE0=Let Me Love You Baby
TTITLE1=How Blue Can You Get
TTITLE2=High Heel Sneakers
TTITLE3=First Time I Met The Blues
TTITLE4=Stone Crazy
TTITLE5=Fever
TTITLE6=Come On Home To Me Baby
TTITLE7=Little By Little
TTITLE8=Don't Go No Further
TTITLE9=Snatch It Back Amd Hold It
TTITLE10=Help Me Darling
TTITLE11=Hoochie Coochie Man and Someday
TTITLE12=Waterman Blues
EXTD=
EXTT0=
EXTT1=
EXTT2=
EXTT3=
EXTT4=
EXTT5=
EXTT6=
EXTT7=
EXTT8=
EXTT9=
EXTT10=
EXTT11=
EXTT12=
PLAYORDER=
